<?xml version="1.0" standalone="no"?>
<!DOCTYPE svg PUBLIC "-//W3C//DTD SVG 20010904//EN"
 "http://www.w3.org/TR/2001/REC-SVG-20010904/DTD/svg10.dtd">
<svg version="1.0" xmlns="http://www.w3.org/2000/svg"
 width="240.000000pt" height="240.000000pt" viewBox="0 0 240.000000 240.000000"
 preserveAspectRatio="xMidYMid meet">
<metadata>
Created by potrace 1.16, written by Peter Selinger 2001-2019
</metadata>
<g transform="translate(0.000000,240.000000) scale(0.100000,-0.100000)"
fill="#000000" stroke="none">
<path d="M960 2256 c-87 -24 -140 -53 -140 -76 0 -12 3 -20 8 -18 4 2 36 18
72 36 l65 33 -40 -33 c-104 -86 -108 -112 -12 -79 63 22 73 14 27 -19 -40 -29
-40 -60 0 -60 30 0 30 -1 24 -40 -4 -24 -3 -40 4 -40 15 0 34 54 30 86 -2 23
-7 28 -23 26 -15 -3 -11 5 18 31 26 24 35 40 31 52 -7 17 -20 17 -94 0 -23 -5
-23 -5 -6 7 54 37 116 90 116 98 0 13 -24 11 -80 -4z"/>
<path d="M1545 1910 c-96 -35 -99 -36 -85 -9 7 11 9 23 6 26 -3 4 -41 -10 -83
-30 -70 -32 -323 -127 -339 -127 -3 0 -4 6 -1 14 10 26 -4 24 -61 -6 -102 -55
-165 -99 -225 -159 l-59 -60 6 36 c4 20 3 35 -2 35 -17 0 -101 -134 -126 -200
-13 -37 -30 -104 -36 -150 -7 -47 -19 -110 -26 -140 -16 -64 -18 -120 -4 -120
6 0 10 8 10 18 0 9 4 22 8 29 4 6 7 -44 7 -110 0 -135 24 -239 71 -307 20 -30
23 -43 17 -87 -5 -50 -4 -54 29 -87 19 -19 48 -38 64 -41 16 -3 34 -9 40 -13
6 -4 29 -19 50 -33 51 -34 150 -72 247 -95 57 -14 77 -23 75 -34 -2 -8 -14
-17 -28 -20 -14 -3 -47 -17 -74 -30 -43 -23 -53 -34 -92 -112 -47 -93 -49 -98
-36 -98 5 0 24 31 42 69 30 62 35 68 47 52 10 -15 9 -27 -7 -70 -16 -40 -17
-51 -6 -51 7 0 16 14 20 31 4 20 27 52 68 91 l63 60 103 2 c100 2 103 1 129
-26 15 -15 32 -28 37 -28 6 0 -5 14 -24 30 -29 25 -32 31 -20 40 22 15 38 12
81 -12 34 -19 37 -23 27 -42 -10 -18 -9 -19 4 -9 12 11 20 1 48 -60 41 -86 39
-82 46 -75 3 3 -15 46 -39 94 -42 82 -49 91 -99 116 -29 16 -63 28 -76 28 -14
0 -22 6 -22 18 0 13 19 23 88 41 125 34 186 58 240 94 26 18 66 38 89 45 60
18 96 64 90 116 -3 33 2 52 30 98 38 63 67 176 51 193 -7 7 -12 6 -15 -1 -2
-6 -11 -20 -19 -30 -15 -19 -15 -19 -9 1 3 11 15 77 26 148 27 175 38 223 66
286 13 30 22 59 20 64 -2 6 -22 -7 -45 -27 -46 -42 -47 -42 -56 43 -3 30 -15
82 -26 117 -26 77 -110 219 -129 219 -27 0 -64 112 -65 197 -1 91 3 89 -111
48z m-515 -767 c54 -96 131 -185 147 -170 2 2 -10 33 -26 68 -48 106 -46 118
7 44 57 -79 79 -105 200 -227 73 -74 83 -88 66 -93 -40 -14 -66 -26 -62 -30 2
-3 23 3 47 12 29 11 45 13 52 6 7 -7 -1 -13 -27 -18 -43 -8 -91 -35 -62 -35
12 0 16 -6 12 -17 -4 -13 0 -11 12 4 21 29 33 29 32 1 -2 -52 3 -70 27 -93 32
-32 60 -31 94 3 20 20 30 42 35 80 6 46 9 52 30 52 18 0 25 -7 30 -32 8 -40
-26 -114 -57 -125 -31 -10 -32 -10 -84 -13 -40 -3 -43 -4 -15 -7 18 -3 48 -15
67 -27 57 -39 112 -11 107 54 -1 14 4 45 12 70 l14 45 7 -33 c4 -18 12 -35 16
-38 5 -3 7 -10 3 -15 -3 -5 -6 -31 -6 -56 0 -127 -67 -176 -332 -243 -144 -36
-163 -37 -296 -5 -199 48 -308 104 -329 168 -25 79 -51 237 -51 312 0 83 22
223 42 273 l11 27 7 -25 c14 -45 11 -68 -10 -75 -15 -5 -20 -15 -20 -41 0 -37
5 -39 45 -24 23 9 28 7 43 -20 22 -39 32 -38 32 5 l0 35 50 0 c31 0 70 -9 105
-24 61 -28 69 -22 28 19 -40 39 -96 65 -142 65 -22 0 -42 3 -44 8 -13 20 34
322 50 322 2 0 13 -5 24 -10 15 -9 21 -7 26 7 5 12 13 -5 28 -54 12 -39 37
-98 55 -130z"/>
<path d="M740 751 c0 -6 4 -12 9 -15 8 -5 20 -74 26 -148 5 -73 49 -102 105
-70 16 9 30 20 30 25 0 4 17 8 38 8 27 1 19 4 -27 10 -75 10 -104 32 -119 90
-17 66 -8 79 54 79 l53 0 -15 -27 c-21 -42 -17 -71 15 -104 28 -28 64 -37 87
-21 20 14 44 57 44 79 0 13 5 23 11 23 5 0 7 5 4 10 -3 6 2 10 12 10 40 0 -24
28 -101 44 -85 17 -226 22 -226 7z"/>
<path d="M1080 391 c0 -17 51 -51 93 -62 71 -19 174 8 197 51 10 20 7 20 -140
20 -85 0 -150 -4 -150 -9z"/>
</g>
</svg>
